# Blender 4.2.1 LTS
# www.blender.org
mtllib boid3d.mtl
o Cube
v 1.000000 0.000000 0.000000
v 1.000000 0.000000 0.000000
v 1.000000 0.000000 0.000000
v 1.000000 0.000000 0.000000
v -1.000000 0.500000 -0.500000
v -1.000000 -0.500000 -0.500000
v -1.000000 0.500000 0.500000
v -1.000000 -0.500000 0.500000
v 1.000000 0.000000 0.000000
vn -0.0000 1.0000 -0.0000
vn 0.2425 -0.0000 0.9701
vn -1.0000 -0.0000 -0.0000
vn 0.2425 -0.9701 -0.0000
vn 0.2425 0.9701 -0.0000
vn 0.2425 -0.0000 -0.9701
vt 0.625000 0.500000
vt 0.875000 0.750000
vt 0.625000 0.750000
vt 0.375000 0.750000
vt 0.625000 1.000000
vt 0.375000 1.000000
vt 0.625000 0.000000
vt 0.375000 0.250000
vt 0.375000 0.000000
vt 0.125000 0.500000
vt 0.125000 0.750000
vt 0.375000 0.500000
vt 0.875000 0.500000
vt 0.625000 0.250000
s 0
usemtl Material
f 1/1/1 7/2/1 3/3/1
f 4/4/2 7/5/2 8/6/2
f 7/7/3 6/8/3 8/9/3
f 6/10/4 4/4/4 8/11/4
f 2/12/1 3/3/1 4/4/1
f 6/8/1 1/1/1 2/12/1
f 1/1/5 5/13/5 7/2/5
f 4/4/1 3/3/1 7/5/1
f 7/7/3 5/14/3 6/8/3
f 6/10/1 2/12/1 4/4/1
f 2/12/1 1/1/1 3/3/1
f 6/8/6 5/14/6 1/1/6
